<mxfile host="app.diagrams.net" modified="2021-04-05T10:44:44.539Z" agent="5.0 (Windows NT 10.0; Win64; x64) AppleWebKit/537.36 (KHTML, like Gecko) Chrome/89.0.4389.90 Safari/537.36" etag="ErKyx03Na5bYLrFcL7p9" version="14.5.7" type="github">
  <diagram id="DymraFrKqfIPVTVH8xc7" name="Page-1">
    <mxGraphModel dx="718" dy="509" grid="1" gridSize="10" guides="1" tooltips="1" connect="1" arrows="1" fold="1" page="1" pageScale="1" pageWidth="850" pageHeight="1100" math="0" shadow="0">
      <root>
        <mxCell id="0" />
        <mxCell id="1" parent="0" />
        <mxCell id="iAfVhliIvetAKRgruaLj-1" value="Actor" style="shape=umlActor;verticalLabelPosition=bottom;verticalAlign=top;html=1;outlineConnect=0;" vertex="1" parent="1">
          <mxGeometry x="290" y="540" width="30" height="60" as="geometry" />
        </mxCell>
        <mxCell id="iAfVhliIvetAKRgruaLj-2" value="" style="shape=callout;whiteSpace=wrap;html=1;perimeter=calloutPerimeter;" vertex="1" parent="1">
          <mxGeometry x="300" y="450" width="120" height="80" as="geometry" />
        </mxCell>
      </root>
    </mxGraphModel>
  </diagram>
</mxfile>
